/* XPM */
static char *c4fa1b8589074834a5fcd9c187414da9qq1SZkh1AlUFHVTK[] = {
/* columns rows colors chars-per-pixel */
"60 60 193 2 ",
"   c None",
".  c #000002",
"X  c #01000B",
"o  c #030013",
"O  c #06001C",
"+  c #070023",
"@  c #090025",
"#  c #0A002C",
"$  c #0C0033",
"%  c #0E003B",
"&  c #110036",
"*  c #12003C",
"=  c #0F0044",
"-  c #0F004A",
";  c #120044",
":  c #1A0044",
">  c #13004C",
",  c #1A004C",
"<  c #0F0051",
"1  c #140054",
"2  c #1A0055",
"3  c #14005C",
"4  c #1B005B",
"5  c #240056",
"6  c #22005C",
"7  c #29005D",
"8  c #140061",
"9  c #1C0062",
"0  c #13006A",
"q  c #1C006B",
"w  c #150072",
"e  c #1C0073",
"r  c #16007C",
"t  c #1B007B",
"y  c #250062",
"u  c #290066",
"i  c #24006B",
"p  c #2B006D",
"a  c #31006E",
"s  c #230073",
"d  c #2E0072",
"f  c #23007B",
"g  c #2B007B",
"h  c #340073",
"j  c #33007C",
"k  c #38007D",
"l  c #160082",
"z  c #1D0083",
"x  c #16008C",
"c  c #1D008C",
"v  c #160091",
"b  c #1A0092",
"n  c #16009B",
"m  c #1D009C",
"M  c #250083",
"N  c #2C0085",
"B  c #250089",
"V  c #2C008C",
"C  c #330086",
"Z  c #3D0080",
"A  c #34008C",
"S  c #3E008E",
"D  c #250094",
"F  c #2B0093",
"G  c #26009B",
"H  c #2D009B",
"J  c #330094",
"K  c #3C0094",
"L  c #34009D",
"P  c #3A009C",
"I  c #1500A2",
"U  c #1E00A4",
"Y  c #1400AD",
"T  c #1B00AC",
"R  c #0F00B9",
"E  c #1600B2",
"W  c #1C00B2",
"Q  c #1200BB",
"!  c #2300A4",
"~  c #2B00A2",
"^  c #2400AC",
"/  c #2C00AD",
"(  c #3400A3",
")  c #3B00A3",
"_  c #3500AC",
"`  c #3C00AB",
"'  c #2200B2",
"]  c #2C00B4",
"[  c #2400B8",
"{  c #2E00BC",
"}  c #3300B3",
"|  c #3E00B0",
" . c #3500B8",
".. c #3B00BA",
"X. c #43008C",
"o. c #430094",
"O. c #490095",
"+. c #44009A",
"@. c #4C009B",
"#. c #530098",
"$. c #4200A1",
"%. c #4D00A3",
"&. c #4200AD",
"*. c #4A00AB",
"=. c #5200A4",
"-. c #5C00A5",
";. c #5500AD",
":. c #5E00AE",
">. c #4300B3",
",. c #4D00B3",
"<. c #4200BA",
"1. c #4D00BD",
"2. c #5400B3",
"3. c #5900B1",
"4. c #5300BD",
"5. c #5F00B9",
"6. c #6100AE",
"7. c #6500B1",
"8. c #6200BC",
"9. c #6E00BF",
"0. c #0E00C3",
"q. c #0500CF",
"w. c #0F00CF",
"e. c #1500C4",
"r. c #1B00C3",
"t. c #1300CC",
"y. c #1C00CD",
"u. c #0300D2",
"i. c #0B00D3",
"p. c #0C00D9",
"a. c #1300D3",
"s. c #1C00D5",
"d. c #1300D9",
"f. c #1B00D9",
"g. c #2300C3",
"h. c #2A00C3",
"j. c #2400CE",
"k. c #2B00CD",
"l. c #3400C4",
"z. c #3C00C3",
"x. c #3300CC",
"c. c #3900CA",
"v. c #2300D4",
"b. c #2C00D4",
"n. c #2200DA",
"m. c #2B00DA",
"M. c #3400D4",
"N. c #3A00D3",
"B. c #3300D9",
"V. c #3C00D9",
"C. c #4400C0",
"Z. c #4D00C5",
"A. c #4500CC",
"S. c #4C00CC",
"D. c #5200C3",
"F. c #5A00C4",
"G. c #5400C9",
"H. c #5C00CA",
"J. c #4300D4",
"K. c #4C00D4",
"L. c #4300D9",
"P. c #4C00D9",
"I. c #5300D4",
"U. c #5B00D4",
"Y. c #5400D9",
"T. c #5E00D9",
"R. c #6200C3",
"E. c #6D00C5",
"W. c #6300CC",
"Q. c #7300C7",
"!. c #7400C8",
"~. c #7800CC",
"^. c #6300D4",
"/. c #6F00D2",
"(. c #6C00D5",
"). c #6000DA",
"_. c #6600D9",
"`. c #6300D9",
"'. c #6E00DA",
"]. c #6C00D9",
"[. c #7100D5",
"{. c #7100D5",
"}. c #7A00D2",
"|. c #7900D7",
" X c #7D00D5",
".X c #7D00D1",
"XX c #7100D9",
"oX c #7600DA",
"OX c #7100D9",
"+X c #7A00DA",
"@X c #7D00DA",
"#X c #8000D5",
"$X c #8100D9",
/* pixels */
"                                                                                                                        ",
"                                                                                                                        ",
"                                                                                                                        ",
"                                                                                                                        ",
"                                                                                                                        ",
"                                                                                                                        ",
"                                                              I.U.                                                      ",
"                                                            J.K.U.^.(./.                                                ",
"                                                              K.U._.].+X|.}.                                            ",
"                                                              A.I.U._.[.+X@X#X.X                                        ",
"                                            i.a.s.v.v.b.b.c.N.K.K.U._.(.E..X$X$X#X                                      ",
"                                      q.i.i.i.f.f.n.n.M.N.V.J.J.K.U.`.(.E.9.!..X$X X[.                                  ",
"                                  i.i.      a.a.s.v.m.b.B.V.L.K.K.T.T./.:.6.7.!.~.@X+X/.                                ",
"                                t.i.w.w.t.a.a.f.f.n.v.m.B.V.L.L.P.T.T._.R.8.-.7.!.+XoXXX/.                              ",
"                                a.s.s.s.f.f.s.j.g.g.v.b.M.l._ A.K.I.U.`.W.W.8.#.8.XX'._.(.U.                            ",
"                              j.s.s.v.f.n.s.n.v.' m B D ! _ _ L <.<.Z.G.F.H.W.=.;.^._.].U.T.                            ",
"                              v.v.v.m.v.[ ' ' ! c 0 t f e D H ( ( &.&.+.*.,.F.4.O.H.`.U.U.I.K.                          ",
"                            M.b.M.M.B.k.[ ^ ! ! z z z z f B M N N A A j K $.4.G.+.,.U.Y.K.K.J.                          ",
"                          V.N.N.B.M.B.k.' ' ^ D c e e z e B f f s y y p J P &.Z.$.$.K.K.P.N.L.V.                        ",
"                        K.J.L.N.M.V.M.] G B z t w e e 1 8 q q i q , 6 i g A P >.) P A.A.L.N.x.N.                        ",
"                      K.K.L.J.V.L.z.~ G G F M w 3 = 1 > > > 3 1 > 2 9 2 6 N V V V N _  .V.M.b.M.                        ",
"                    I.K.K.K.K.A.` V V F D M e 9 1 % > $ ; ; > * * 2 2 2 : s s g s N H ] x.m.b.m.v.                      ",
"                    I.I.K.P.K...L A F s q 2 > 1 = ; % % $ # % $ # * > > ; 4 f q 9 f G G h.v.v.n.s.                      ",
"                  I.I.I.I.I.Z.>.L J i 4 2 1 1 * ; = % $ @ @ # @ + # & > # 1 q s 3 e D c g.v.s.f.t.                      ",
"                  I.I.Y.Y.Y.S.) C s y q s 3 > % # + # @ O o O O O @ # $ + ; 0 w 3 q b c r.f.a.d.a.                      ",
"                I.Y.T.Y.Y.S.) A g f s s q 4 > % $ O O O o o o o X + + O # > 1 3 1 t b b r.f.d.d.i.i.                    ",
"                I.P.Y.P.G.&.P | L g s s 4 ; % # O o o o X X X X o o o X % % - < - r n n E a.a.p.i.u.q.                  ",
"                P.Y.Y.K.<.L ..z.( V f 4 ; + @ + o o X X X X X X X o o O # $ % < 3 l v x E e.a.p.p.u.u.q.                ",
"                J.P.K.<.J ..z. .G B e * = > $ @ O o o X . . . . X X X o + # = = 3 r r I Y R R u.u.u.u.                  ",
"                L.J.z.) ` z.l.~ H M 9 > 1 = $ @ O X X . . . . . X X O O # = = = 3 0 r I Y E 0.p.u.                      ",
"              M.V.c. .~ l.l.] D G e 3 8 3 = @ o o O X X . . . . X X o + # $ % % - 0 x n I R p.p.u.  u.q.                ",
"              j.B.x.] / k.k.{ D t 8 3 8 < = # + O O X X . . . . X X X O @ % = = 3 w l l v e.d.p.u.  u.u.                ",
"              y.m.b.[ ^ h.m.j.^ G r 1 1 < % # # + o o X X . X X X o o O # $ % > q 0 z 0 v E e.p.u.u.u.                  ",
"              s.n.j.g.W v.n.v.Q T b 0 w 3 < - % + O o o o X o . o o O # # * > > 8 M c r c E s.p.i.u.u.                  ",
"              a.f.y.y.s.f.f.s.r.E n l r 0 3 - $ # + + O o o o o o O @ & > > 2 q e f e t m n.a.a.p.i.u.                  ",
"                d.a.d.d.a.d.d.s.Y I l l w 3 - % $ $ # O o o O O @ O @ @ & 2 9 e B M e G v.f.s.d.d.u.                    ",
"                p.d.p.i.i.p.d.d.n I x x r 0 - % = % * @ # + o @ @ & # * * 2 i f B B ~ { b.m.s.f.a.                      ",
"                p.p.u.i.u.i.p.d.E E v r r 0 3 1 = = ; # & & @ @ & & , 2 5 6 g N V L / l.M.m.m.n.t.                      ",
"                u.p.u.u.u.i.d.d.e.e.x w c t e 3 ; > ; & * * : @ & , 5 7 y , 7 N L ( ( x.B.B.m.s.                        ",
"                u.u.u.  q.i.d.d.f.s.U t z z s e 2 9 , 2 , 2 6 : : : : 5 6 6 g P | <.L.V.V.M.b.                          ",
"                u.u.u.    i.a.d.f.f.[ B q t B N i f p , , u u p p y y p j p A &.C.J.L.V.N.M.k.                          ",
"                            a.f.s.f.v.! G N H J N C C s 5 y p a h j C S K K S >.Z.K.P.L.V.x.x.  v.y.                    ",
"                            a.f.v.v.b.} l._ ( ` ) A P S a 7 5 a k k +.+.+.+.,.Z.Y.P.P.L.L.N.M.M.M.b.                    ",
"                              v.m.b.m.V.L.L.` &.&.+.+.S o.X.h h Z +.2.4.1.4.F.I.G.I.I.P.K.L.V.V.M.b.                    ",
"                              v.m.b.M.V.L.P.,.>.D.4.,.@.O.X.%.O.Z O.;.F.H.F.U.H.4.*.1.K.K.K.P.V.N.                      ",
"                                M.M.M.c.J.Y.Y.G.U.`.`.H.=.@.@.=.=.=.@.O.#.@.%.*.%.*.4.D.I.Y.K.L.                        ",
"                                  N.N.  J.I.I.T.`._.^._._.R.R.5././.W.R.F.3.3.3.2.F.U.U.Y.I.                            ",
"                                    N.    K.T.`.^._._.(.(.(.].].(.[.].].].(.W.W.W.^.`.T.I.                              ",
"                                      A.K.I.G.U.^.U.^.(./.^.(.(.(.].(.XXXXOX].]._._.^.                                  ",
"                                          I.U.U.H.  ^./.XX(./.(.(./.XX(.].XXXX_.^.                                      ",
"                                                          {.{.{.(.{.XX{.{.(./.                                          ",
"                                                                                                                        ",
"                                                                                                                        ",
"                                                                                                                        ",
"                                                                                                                        ",
"                                                                                                                        ",
"                                                                                                                        ",
"                                                                                                                        ",
"                                                                                                                        ",
"                                                                                                                        "
};
