/* XPM */
static char *_135cf6eae5945e6c2be7a00c3e5af394YLfwpHG0vVEEGtk[] = {
/* columns rows colors chars-per-pixel */
"60 60 80 1 ",
"  c None",
". c black",
"X c #3B3100",
"o c #000538",
"O c gray20",
"+ c #3B3638",
"@ c gray22",
"# c #403708",
"$ c #4D4100",
"% c #766200",
"& c #7B6808",
"* c #6E6433",
"= c #766738",
"- c #736A3B",
"; c #7B6C3F",
": c #000549",
"> c #111540",
", c #000755",
"< c #000A6F",
"1 c #000A77",
"2 c #111977",
"3 c #1A2277",
"4 c #4B4B4B",
"5 c gray40",
"6 c gray42",
"7 c #766C6F",
"8 c gray44",
"9 c #7B7177",
"0 c #806D10",
"q c #807247",
"w c #80777E",
"e c #80777F",
"r c #EBC400",
"t c #F5CF10",
"y c #FFDA1F",
"u c #94897F",
"i c #000B80",
"p c #111A80",
"a c #212980",
"s c #2A3180",
"d c #333A80",
"f c #000FAF",
"g c #111EAF",
"h c #2A36B7",
"j c #3B40AF",
"k c #4B4FAF",
"l c #4045B7",
"z c #595DB7",
"x c #5055BF",
"c c #0013DE",
"v c #0014EF",
"b c #0015F7",
"n c #0015FF",
"m c #1123E6",
"M c #1123EF",
"N c #1124F7",
"B c #2133EF",
"V c #2A3BEF",
"C c #2133F7",
"Z c #2134FF",
"A c #3343EF",
"S c #3B4BF7",
"D c #3243FF",
"F c #4252FF",
"G c #4B5AFF",
"H c #5462FF",
"J c #5463FF",
"K c #5D6BFF",
"L c #6673FF",
"P c #807787",
"I c #80788F",
"U c gray59",
"Y c #A99C80",
"T c #A1968F",
"R c #CBCBCB",
"E c gray80",
"W c LightGray",
"Q c gray84",
"! c #DFDFDF",
"~ c gray88",
/* pixels */
"                                                            ",
"                                                            ",
"                                                            ",
"                                                            ",
"                                                            ",
"                                                            ",
"                                                            ",
"                        ......                              ",
"                        ......                              ",
"                     ...nvcytr......                        ",
"                    .<1ivleeuYipaaaa...                     ",
"                   ..cvnceycALnZFFFF...                     ",
"                   ..nvcyecLLLLHFFFFFBc...                  ",
"                  .,iIPeyecHKLLKJFDZZNvi1<.                 ",
"                  .inyyyyecFHLLLLFZnnnnnvc..                ",
"                  .0y....0ycBFLHFFBcnnnnnn..                ",
"                  .&t.O55-07kBHGFZMcvbnnnn<:.               ",
"                  .%r.5EE5.r7cFFFnvccvnnnnc<.               ",
"                  ...~! .5E.%rcvnc<.....<cni.               ",
"                  .@8!8..6Q5*%7jvc<.....:<v1.               ",
"                  .8~ ...8~E5.r7cc<.    ..c<.               ",
"                ..~!     !~E5.r7c..       ..                ",
"               .48!    !RWQ5*%r=<<:.      .                 ",
"               .8~    !~EEE.%rr%.c<.                        ",
"               .8~ !~E5....r%..<cFBc..                      ",
"              ..U~.485-00&%%+<<gBBk7..                      ",
"             .. !~....0yytr.<ccBFc7r..                      ",
"             ..~8. ..c<....cccFBcrrr..                      ",
"              .84. ..cgaaaacccBk7%%%<:.                     ",
"               ..  ..cBFFFFcccc7r...c<.                     ",
"                   ..r7ccccyyyr%.cccc<.                     ",
"                   ..%;ee97000%X.cmBc<.                     ",
"                   ...0yytr......cBFc<.                     ",
"                  .<c......c<.c<.FJLFFF..                   ",
"                  .<c.o<<2ac<.c<.JKLJGF..                   ",
"                  .<c.<ccBFc<.c<.LLLLHF..                   ",
"                  .aF.<cFJLFFF...cALLLL..                   ",
"                  .sJ.3AJKLJGF%X.ezALLL..                   ",
"                  .dL.dLLLLLHFr%.yecLLL..                   ",
"                  .%r.0ycALc7r.<c.0ycAL..                   ",
"                  .$%.#0ezA7=%<fv.#0ezA..                   ",
"                   .....yecr%.cvn...yec..                   ",
"                     ...ceyr%.FFFnvc.%r..                   ",
"                    .<o.vxT7+.JJJZCB.X%.                    ",
"                   ..c<.nZFc<.LLLFFF...                     ",
"                   ..Fa.yecr%.FJLFBc..                      ",
"                  .:<Jh<0qe%+<FSABVA<:.                     ",
"                  .<cLAc.0y.<cFBccALc<.                     ",
"                  .aFLHFc<.cccFJLLHFccc..                   ",
"                  .>adsa<o.<<<asddsa<<<..                   ",
"                  .......................                   ",
"                                                            ",
"                                                            ",
"                                                            ",
"                                                            ",
"                                                            ",
"                                                            ",
"                                                            ",
"                                                            ",
"                                                            "
};
