/* XPM */
static char *_9f2c6e05d524b1e9cda0c7c557f17675Tj9Bkk6rx6YHgaN[] = {
/* columns rows colors chars-per-pixel */
"60 60 130 2 ",
"   c None",
".  c #F2A35A",
"X  c #F2A45B",
"o  c #F2A45C",
"O  c #F2A55C",
"+  c #F2A45D",
"@  c #F2A55D",
"#  c #F2A65D",
"$  c #F2A55E",
"%  c #F2A65E",
"&  c #F2A75E",
"*  c #F2A75F",
"=  c #F3A95F",
"-  c #F2A760",
";  c #F2A761",
":  c #F2A861",
">  c #F3AD61",
",  c #F4AD61",
"<  c #F4AF62",
"1  c #F3AE6A",
"2  c #F3AF6D",
"3  c #F5B464",
"4  c #F6B764",
"5  c #F6B765",
"6  c #F6B865",
"7  c #F3B06D",
"8  c #F4B16F",
"9  c #F6B968",
"0  c #F4B271",
"q  c #F5BA7D",
"w  c #F8C36A",
"e  c #F8C46A",
"r  c #F8C46B",
"t  c #F8C56B",
"y  c #F9C56B",
"u  c #F9C66D",
"i  c #F9C86C",
"p  c #F9C96D",
"a  c #FACE6F",
"s  c #FBD26F",
"d  c #FBD270",
"f  c #FBD271",
"g  c #FBD371",
"h  c #FCD471",
"j  c #FCD572",
"k  c #FDDC75",
"l  c #FDDD75",
"z  c #FEDD75",
"x  c #FEDF76",
"c  c #FAD27F",
"v  c #FFE374",
"b  c #FFE375",
"n  c #FEE076",
"m  c #FFE276",
"M  c #FFE277",
"N  c #FFE377",
"B  c #FFE476",
"V  c #FFE477",
"C  c #FFE577",
"Z  c #FFE378",
"A  c #FFE478",
"S  c #FFE578",
"D  c #FFE479",
"F  c #FFE579",
"G  c #FFE679",
"H  c #FFE47A",
"J  c #FFE57A",
"K  c #FFE57B",
"L  c #FFE67F",
"P  c #F6BF86",
"I  c #F6BF87",
"U  c #F6C086",
"Y  c #F6C087",
"T  c #F8CA82",
"R  c #FCDB8E",
"E  c #F7C792",
"W  c #FFE681",
"Q  c #FFE784",
"!  c #FFE786",
"~  c #FFE888",
"^  c #FFEB95",
"/  c #FDE59D",
"(  c #FFEC98",
")  c #FFEC99",
"_  c #FFEC9A",
"`  c #FFEB9E",
"'  c #F8D0A0",
"]  c #F8D2A4",
"[  c #F8D2A5",
"{  c #F9D3A5",
"}  c #F9D7AC",
"|  c #FADEB7",
" . c #FFEEA1",
".. c #FCE2AB",
"X. c #FCE5AD",
"o. c #FFF0AB",
"O. c #FCE6BE",
"+. c #FFF1B0",
"@. c #FFF2B2",
"#. c #FFF2B3",
"$. c #FBE5C3",
"%. c #FBE6C3",
"&. c #FBE6C4",
"*. c #FFF6C8",
"=. c #FFF7CA",
"-. c #FFF7CB",
";. c #FFF8CB",
":. c #FFF8CC",
">. c #FFF9D1",
",. c #FDF4D8",
"<. c #FDF4DA",
"1. c #FEF5DC",
"2. c #FEF6DC",
"3. c #FEF7DF",
"4. c #FFFCDD",
"5. c #FFFCDE",
"6. c #FFFCDF",
"7. c #FFFDDF",
"8. c #FFFEE6",
"9. c #FFFDE8",
"0. c #FFFEE9",
"q. c #FFFDEA",
"w. c #FFFEEA",
"e. c #FFFFEA",
"r. c #FFFFEB",
"t. c #FFFFEC",
"y. c #FFFFED",
"u. c #FFFFEE",
"i. c #FFFFEF",
"p. c ivory",
/* pixels */
"                                            % % % % % % % % % % % % % % % %                                             ",
"                                            % % % % % = % % % % % % % % % %                                             ",
"                                              % % X X X X X X X X X X X X                                               ",
"                                            q Y P Y Y Y Y Y Y Y Y Y Y P Y q                                             ",
"                              % % % % % % % ] r.9.9.9.9.8.8.r.8.8.r.9.9.r.] X % = % % % %                               ",
"                              % % % % % % X ] u.r.r.r.r.r.r.r.r.r.r.r.r.u.{ X % % % % % %                               ",
"                              % % % X X X X ' u.r.u.u.u.r.u.u.u.u.r.u.u.u.] % % % % % % %                               ",
"                        %   8 ' ] ] { { { { X.@.@.@.@.@.@.@.@.@.@.@.@.@.@.R e e e e y y w ,   %                         ",
"                      : % % 8 <.u.r.u.r.u.u.@.b b b V V V V V V V V V V V V V D D V D D l > % % %                       ",
"                      % % % 8 <.r.r.r.r.r.u.@.V D Z D V V V V V V D V V V V D V V D V V l > % % %                       ",
"                      : : % 0 ,.r.r.r.r.r.r.o.D V D V D V D V V D V D V V D V D D V V D l , = = %                       ",
"                % % : } $.$.O.` _ ^ ) ) ) ^ ~ D D V D V D V D V V D V D D V D V V D D Z b j g g i - % %                 ",
"              : % % : &.p.u.7.Q b V V V V V V V D V D V V D V D V V V V V D V D D V D V V D V G g : % % %               ",
"                % % % $.u.u.7.! b Z D V V D V V V V V b V V V V V V V V V V D V V D V D D V D V s % % %                 ",
"              0 8 8 0 O.7.7.>.Q V D V D D V L ! ! ! ! ! ! ! ! ! ! ! Q ~ ~ L V D D V D V V D V D j , , , ,               ",
"        % % % E 1.<.<.` Q ! Q D V V D V D b o.4.4.7.4.4.4.4.4.7.4.4.4.7.7.o.V D V D V D D V D V b l l l w % % %         ",
"        # # # { u.r.r.^ b V V D D V D V V V @.u.r.u.r.r.u.r.u.r.r.r.u.r.u.@.V V V D V D V D V D D V D D y % % %         ",
"        # # # ] u.r.r._ V D V V V D V V V v @.u.r.u.u.u.u.r.u.u.u.u.u.r.p.@.V D D V D V D V D V V D V V y % % %         ",
"        - # % ] u.r.8._ V V V D V V Q ^ ^ ) @.=.=.;.;.;.;.;.=.=.;.;.;.;.;./ g g g b V D V D V D D V D D y % % %         ",
"        - # % { r.r.r.) V V D V V V ( 8.r.r.@.V D D D D D D D D D D D D D y % : = g D V D V D V V D Z D y + % %         ",
"        % % % ] u.r.r.^ V V V D D V ) r.r.r.@.V V D D V V V V D V V D V D y % % % g D V D V V D D V D V e % % %         ",
"        % % . ' u.u.r._ V D V V V v ( r.u.u.@.V D V V V V V V V V D V D D e % % % g D D G D D V V D V D e % % %         ",
"# #   q ' ] ] ..@.@.o.~ D V L o.@.@.@.@.@.@.^ V V D  .@.@.@.@.@.@. .D D V g e y y y y e i l V D D V D V j e y y 3   # - ",
"- # # Y r.u.u.@.b V V D D b ! 4.u.u.=.D b V V V D D ;.u.r.u.u.r.u.:.D V D D V D Z 3 % % 3 k V V V D V D D D D Z 4 - # # ",
"# # O U 8.r.u.@.V V V V D V ! 4.r.u.;.D V D V D D D =.u.r.r.r.r.u.=.D V D V D V Z 6 % % , l D V D V D V D V D V 4 # # # ",
"# - O U r.r.r.@.V V V D V V ! 4.r.u.;.D D V D V D D =.r.r.r.r.8.r.*.D D V D V D b 3 % % , l V D V D V D V D V V 9 # # - ",
"# # + I 9.r.u.@.V V D V D V ! 4.r.u.;.D V D V D D D ;.u.u.1.E P Y T Z V D V D V Z 6 % % , l D V D V D V D V D V 9 # % % ",
"- # + I 9.r.u.@.V D V D V V ! 7.r.u.;.D D V D V D D ;.u.r.<.2 . % 3 b D V D V D Z 6 % % , l V D V D V D V D V V 3 % % % ",
"% % X Y 9.r.r.@.V V V V V V ! 4.r.r.=.D V D V D D D =.r.u.<.8 % % 6 Z V D V D V b 6 % % , l D V D V D V D V D b 6 % % % ",
"% % X P 9.r.u.@.V V V D V b ! 4.u.u.;.D D V D V D D =.u.r.<.8 % % 6 Z D V D V D Z 6 % % , l V D V D V D V D D Z 6 % % % ",
"% % % P 9.r.u.@.V V D V D V ! 7.r.u.;.D V D V D V D =.u.r.<.8 X % 3 b V D V D V Z 6 % % , l D V D V D V D V V b 6 % % % ",
"% % X P 9.r.r.@.V D V D V V ! 7.r.u.;.D D V D D D D =.u.r.<.8 % % 6 Z D V D V D Z 3 % % , l V D V D V D V D D Z 3 % % % ",
"% % X Y 9.r.u.@.b Z D V D V ! 7.r.u.=.D D V D V D L ;.u.u.1.8 % % 6 V V V D V D V 6 % % : l D V D V D V D V D b 6 % % % ",
"% % X Y 9.r.r.@.V D V D V V ! 4.r.u.=.D V D V D V D X.$.%.| 1 % % 3 V D D V D V V 6 % % , l V D V D V D V D D b 6 % % % ",
"% % X Y r.r.u.@.V V V V D V ! 4.r.u.;.D D V D V D Z 9 : : : % % % 6 b D V D V D b 6 % % , l D V D V D V D V D V 3 % % % ",
"% = # Y 8.r.u.@.V V V D V b ! 4.u.u.=.D V D V D D b 6 % % % % % % 6 b D D V D V Z 6 % % , l V D V D V D V D V V 6 % % % ",
"% % % Y r.r.u.@.b D V V D V ! 7.u.u.=.D V V V V V b 6 % % % = % + 3 V D V D D D Z 6 % = > l Z D D V D V D D D Z 6 - % % ",
"% %   q ] ] ] ..@.#.o.~ V V L o.@.@.@.@.@.@.^ D D Z a e e w e e y a V D V j y e e e e e i b D D V D V D j y e y 3   % % ",
"        % X . ] u.u.r.^ V V Z V V v ^ r.u.u.@.V D D V D D D V D D V D V D y % % = g D V V D V D D V D V e % % %         ",
"        % % X { u.r.r.) V D V D V V ) r.r.r.@.b D V D V D V D V D D V D V e % % % g D V D V D V V D V D e % % %         ",
"        % % % { u.r.r.^ b D V D V V ( 8.r.r.o.Z Z b D D b Z b D b Z Z b D e = = : g V D V D V D D V D V e % % %         ",
"        % % X { u.r.r.) V D D V D V Q ^ ^ _ c 4 6 6 6 3 6 6 6 3 6 6 6 6 3 e g g j l D V D V D V V D V D y % % %         ",
"        % % % { r.r.r.) V D V D D V V V V V e % % % % + % % % % % % % % % e G D V D V D V D V D D V D D y % % %         ",
"        % % % } u.r.r.^ b V V V V D V V V D e % % % % % % % % % % % % % % e V D D V D V D V D V V D V D y % % %         ",
"        % % % E <.<.<.` Q ! Q Z V D V D D Z i > , , , , , , , , , , , , > i D V D V D V V D V D b l l l w % % %         ",
"              8 8 8 0 O.7.7.>.Q V V D V D Z b l l l l l l l l l l l l l l b D D V D V D D V D V j , , , >               ",
"                % % - $.u.u.7.! V V V V V D V D D V Z D D V D V V D Z D D V D V D V D V D V V D g % % %                 ",
"              % % % : $.u.u.7.Q v V V V V V V D V D V D V D V D D V D D V D V D V D V D V G V G g - % % %               ",
"                % % : } &.$.O.` _ ^ _ _ _ _ ! Z D V D V D V D V V D V D V D V D V D V D b j s j i % % %                 ",
"                      : : - 0 <.r.r.8.r.8.r.o.V V D V D V D V D D V D V D V D V D V D V l , % : %                       ",
"                      % % % 8 <.r.r.r.r.r.u.#.D D V D V D V D V V D V D V D V D V D D Z l , % % %                       ",
"                      % % % 8 <.u.u.u.r.u.u.@.V V D V D V D V D D V D V D V D V D D D D l , % % %                       ",
"                        %   8 ' { { { ] ] ] R V D V D V D V D V D V D V V j e y y y y y w ,   %                         ",
"                              % X % X % X % e V V D V D V D V D V D V D D e % % % % % + %                               ",
"                              % % % % % % % e D D V V D D V D V D V D V D y % % % % % % %                               ",
"                              % % % % % % % e D Z Z b Z Z b Z Z Z b Z b D e % % % % % % %                               ",
"                                            3 6 6 6 6 6 3 6 6 6 6 3 6 6 6 3                                             ",
"                                              % % % % % % + % % % % % % %                                               ",
"                                            % % % % % % % % % % % % % % % %                                             ",
"                                            % % % % % % % % % % % % % % % %                                             "
};
