/* XPM */
static char *_9be7ca11df94244ef36d138977d3492fGjXb44Xyqhjibwm[] = {
/* columns rows colors chars-per-pixel */
"60 60 103 2 ",
"   c #5F362C",
".  c #60362C",
"X  c #62382E",
"o  c #663C31",
"O  c #6A3E33",
"+  c #664036",
"@  c #6E4135",
"#  c #6B4339",
"$  c #734235",
"%  c #784537",
"&  c #774639",
"*  c #784639",
"=  c #77483C",
"-  c #7D493B",
";  c #6F524B",
":  c #72544D",
">  c #78574F",
",  c #78584F",
"<  c #755750",
"1  c #755D57",
"2  c #7B5C54",
"3  c #775F59",
"4  c #7B5F58",
"5  c #7D615A",
"6  c #7E6760",
"7  c #7F6860",
"8  c #834B3C",
"9  c #8A4D3F",
"0  c #834F41",
"q  c #8C4F40",
"w  c #934F40",
"e  c #865042",
"r  c #8C5142",
"t  c #955244",
"y  c #9A5343",
"u  c #945648",
"i  c #9A5748",
"p  c #9C5748",
"a  c #95584B",
"s  c #985849",
"d  c #9D5848",
"f  c #9E5B4C",
"g  c #805D55",
"h  c #A15645",
"j  c #A25646",
"k  c #A75746",
"l  c #A75846",
"z  c #A75847",
"x  c #A85847",
"c  c #A15848",
"v  c #A15948",
"b  c #A25948",
"n  c #A25949",
"m  c #A25A49",
"M  c #A35A4A",
"N  c #A25B4B",
"B  c #A45B4B",
"V  c #A45D4D",
"C  c #A85A4A",
"Z  c #A95B4A",
"A  c #80625A",
"S  c #83635B",
"D  c #83645B",
"F  c #84645B",
"G  c #81655E",
"H  c #83665F",
"J  c #85655C",
"K  c #86655C",
"L  c #86665C",
"P  c #88685F",
"I  c #8C685F",
"U  c #826861",
"Y  c #836861",
"T  c #826A63",
"R  c #846962",
"E  c #876B63",
"W  c #876C63",
"Q  c #826B64",
"!  c #856E67",
"~  c #896B63",
"^  c #896C64",
"/  c #8C6C64",
"(  c #8D6F66",
")  c #876F68",
"_  c #886F68",
"`  c #87716A",
"'  c #86726C",
"]  c #87736C",
"[  c #887069",
"{  c #887169",
"}  c #89726B",
"|  c #8C736C",
" . c #8A766F",
".. c #8D766E",
"X. c #8D766F",
"o. c #8A7670",
"O. c #8B7871",
"+. c #8A7872",
"@. c #8B7872",
"#. c #8B7973",
"$. c #8B7974",
"%. c #8C7B75",
"&. c #8C7C76",
/* pixels */
"s u y u y u y r 8 8 e 2 3 3 2 n C C C C C C C C C C y y u i u y i y u y u q 8 0 0 ~ _ _ ( B C x x u y y u i u y u i u i ",
"y t t t t t y 9 8 8 8 , 1 1 2 n M k k k k k k k k k y t t t t t t t t t y q 8 8 8 J _ _ / M k k h t t u t t t t t t w t ",
"u t t t u y t 9 8 8 8 , 1 1 2 n k k x x k k k k k k y t t t t t t t y y t q 8 8 8 J _ [ / M x k k y y t t t t t u y w y ",
"t t 9 t 9 9 t 9 - 8 - 2 5 5 5 r w y 9 y y y y y y y t t t q w t q w w 9 w 0 8 - 8 J _ [ ( y 9 t t 9 t 9 t q t w r w w w ",
"9 8 8 8 9 8 8 - * * * F ) ` U # O O O - % % * 9 8 8 8 8 8 8 8 8 8 8 8 8 8 - * % * G [ [ R # O X O 8 8 8 8 8 8 8 8 8 8 8 ",
"8 8 8 8 8 8 8 - * * * J [ _ R # O X O % * % 8 8 8 8 8 8 8 8 8 8 8 8 8 8 8 - % * * J [ [ U # o o O 8 8 8 8 8 8 8 8 8 8 8 ",
"8 8 8 8 9 9 8 8 * * * D [ [ Q # o O O - * * 8 8 8 8 8 8 8 8 8 8 8 8 8 9 8 - * * * J [ [ R # o o $ 8 8 8 8 8 8 8 9 8 8 8 ",
"% % % $ O O O O O O O G o. .! # . X o O O O $ * 8 * 8 * 8 * $ $ % % O O $ O O O @ 5 [ [ U o X X O 8 8 * & $ & $ * O & O ",
"O o o X       . . . . 6 &.%.' o         . . O * % % & & & & o o X o X .         X 2 [ [ 6 o     o % % % O O O o o o o o ",
"O o O X         . . o U &.%.' o         . . O * & * & & * & o o O X . .         X 5 [ _ U o     o % * * O o o O o o o o ",
"O o O o       o X   X 6 &.%.' +   o o   X . O * & % * % % & O o o X X X X X X X X 5 ` ` U + . o O * * * O O O o O O O o ",
": ; : ; ; ; ; > 5 4 5 ' &.&.+.5 4 4 2 ; ; ; : : < : < < : : : ; : : 4 4 4 4 4 4 5 ` &.+.' 5 5 5 2 < : < : ; : : ; ; ; ; ",
"3 3 3 1 1 1 1 6 ` ` [ +.%.%.o.} ) _ Q 3 1 1 1 1 1 1 1 1 1 1 1 1 1 5 ` ` [ [ [ _ ` +.%.%.+.[ [ [ Q 1 1 1 1 1 1 1 1 1 1 1 ",
"3 1 1 1 1 1 1 6 ) ` [ +.%.%.%.[ ) ' Q 3 1 1 1 3 1 1 1 1 1 1 1 3 1 5 ` ` [ [ [ _ _ +.%.&.+.` [ [ U 1 1 1 1 1 1 1 1 1 1 1 ",
"4 2 2 2 2 2 2 G ^ ^ ^ | o.X.X.W ~ ~ U 2 1 2 2 > 1 < 1 4 3 3 2 2 2 5 ^ ^ ^ ^ W ( W | X.X. .W ^ R G 1 2 1 1 > > 1 1 1 1 1 ",
"n n c c c c c i u u u u u a u 0 0 0 0 r t t 9 8 : 0 G ! ) ~ f c n d u u u a u u u a u u u e e 8 q u t t q : 8 8 > 1 1 1 ",
"x x x x l l l l t y t y h 9 9 8 8 8 8 t w i q 8 8 8 J _ _ ( M k C x 9 y y t t y t y t t t 8 8 8 9 t t t 9 - 8 8 < 1 1 1 ",
"x x x x x x x x t t t y y c 9 9 8 8 q y t y q 8 8 8 R _ _ ( M k C x y y y t t t t t t y t 8 8 8 9 y t y r 8 8 8 < 1 1 1 ",
"9 h 9 9 h 9 9 9 9 t 9 t 9 y 9 9 8 8 8 q q q 8 % % * S } _ ~ t w 9 9 t 9 9 r 9 t t 9 9 9 r 8 8 - 8 q q q 8 8 - 0 2 3 6 5 ",
"$ O @ $ 9 9 8 8 8 8 8 8 8 8 8 8 8 8 - & * - O O O o g [ [ R # O O O % * % * * * % * * * * & & * * & * * * * * & G _ _ _ ",
"@ X O $ 8 8 8 8 8 8 8 8 8 8 8 8 8 8 8 & & & O O X O 5 ' [ U # X o O - % & * * * * * * * * * * * * & & & * * * & S [ [ [ ",
"X O X @ 8 8 8 8 8 8 8 8 8 8 8 8 8 8 8 * * * O O o o 5 ' [ R # O o O % % * * * & * * * & & * * * * & * * * * * - S [ [ [ ",
"# o X $ - - - 8 8 8 8 % $ $ $ * $ $ $ O O O O . X X 5 &. .! O o X o O O O O $ @ $ % & * * * * * & @ @ $ O O O O S [ [ [ ",
"o X X @ % % % % 8 8 8 $ o o o X X O o o O o o   X X 5 &.&.` o   X . . . . X o o o $ & & * * * & $ o o o X . . X 4 [ [ [ ",
"$ X X @ $ % % - 8 8 8 @ X + X + o o o o o o X X X X 5 &.&.` +   . . .     . o o o & * % % * * * $ o o o o .   o 4 [ [ _ ",
"$ X # + % % % - 8 - 8 # o o o o o o + X @ o X X X X G &.&. .+   . o . o . o o o o % * % = = * & $ o o o . .   X 5 ^ [ _ ",
"D 5 D 5 : : < , : < < ; : : : : : : < 5 5 5 5 5 5 5 ` &.&.+.5 5 4 g 4 5 5 < : ; : : < : : < : : : : ; ; 2 5 5 4 ! %.%.+.",
"( ! ! P 5 1 1 5 1 1 5 1 1 2 1 1 1 1 5 [ [ [ [ [ ` [ X.&.%.&.[ ` _ | [ [ [ 6 3 1 1 1 1 1 1 1 1 3 3 1 1 1 6 [ ' [ X.%.%.%.",
"| { { T 1 1 1 1 1 1 1 1 1 1 1 1 1 5 5 ! [ [ [ [ [ _ +.%.%.+.[ [ _ _ _ _ ` 7 1 3 1 1 1 1 3 1 1 1 1 4 1 1 6 _ _ _ o.%.%.%.",
"( W W L 1 1 1 < 1 < < 5 5 1 5 2 2 , 5 W / ( / / ( ( | X.X.X.R R ~ J ~ ~ ^ 5 < < 1 1 1 5 2 2 2 2 2 < 4 4 G ^ ^ ~ | o.+.| ",
"a u u u u u t 9 8 e 8 D ! ! W f v v m B n B M n n n s u y u - ; - > u u u 0 = = - G ! ! ~ d n n h h h n p u u u u u u u ",
"y t t t t t t 9 8 8 8 D ! ` ( v z z z z z z x z z x y t y 9 8 % & 8 t t y 8 & * * G _ ! ( n k k k C k C y t t t y t y y ",
"u t y t h y y 9 9 8 8 F { { / c x x z x z z z z z C h y t t * % * 8 t t y 8 * * * G [ [ ( M C k C C k C h w u t t t y t ",
"t 9 9 t 9 9 9 9 - 8 8 F { { W u y y y t h 9 y y y 9 t 9 r 9 * % & - r 9 9 - $ $ % D [ [ ~ t 9 9 w y w y w q q q q q q q ",
"8 8 8 8 8 8 8 * * * * D ^ { / - * * % % - % % * * * % * = % = % % * * * % $ o o o 5 [ [ E $ O O O - % % % * * * * * * * ",
"e 8 8 8 8 8 8 - * * * D [ W P : % % % % % % % * * & % % % % % % * * % * % $ o o o 5 [ [ E O X O O % * % * & & & & & & & ",
"9 8 8 8 8 8 8 8 % % % D [ [ ^ - $ % % % * & * * % * * % * % % % * * & & * @ o o o S ` ` U # X o O * * 8 * - * % * * * * ",
"* $ $ $ $ * $ $ O O + 5 [ [ R = $ $ $ @ @ @ % * * % % * % = & $ $ $ $ @ @ O X X o 5  .o.) O X X O O O O O O O O $ O O O ",
"@ X @ o X o o X X . X 5 [ ! ! # o o o o X O @ & % * % % % & o X X o o o X X X .   6 &.&.' o     . o o o O O o o o o o o ",
"#   X o @ X o X . . X 5 [ ` G # X @ o o o X @ & * % * * % % + X o o o o O X . . o 6 &.&.' o .   . o X o o o o o o o o o ",
"+ X o o + X @ X X X X 5 [ [ R # X O o o o o @ = = % & & & & O o o o o o O o o . X 7 %.%.` +   o   O o o o o o o o o o o ",
"< > : < 5 5 S 5 5 5 5 [ +.+. .F S 5 5 : ; : : > : : < : : : : : : : : : ; 3 4 4 5 ' %.%.+.5 2 5 2 : : : ; < < ; : : ; ; ",
"5 1 1 5 { { [ [ W [ [ +.&.%.+. .` { U 1 3 1 1 1 1 5 1 5 3 1 1 1 1 1 1 1 1 6 [ _ ' +.&.%.&.[ ` [ Q 1 1 3 1 1 1 1 5 1 1 5 ",
"1 1 1 5 W { [ { ` ! [ +.&.%.+.` ` ` ! 1 1 1 1 1 1 1 1 1 1 1 1 1 1 1 1 1 1 6 _ _ [ +.&.&.&.[ [ ` Q 1 1 1 1 1 1 1 1 1 < 1 ",
"5 2 2 5 / / / / / / / | X.X.X.W U ! G 2 2 2 2 2 1 2 1 1 1 1 2 2 2 2 2 2 2 G ~ ~ / | X.X.X.U U R J 2 2 2 2 1 2 2 5 5 1 5 ",
"u e u u c c c B M M M c n M f 8 - - 0 n n d y u t r 2 1 1 2 s n c i r t t u u u u u u u u - ; = 0 h n n y t u u 5 ` ` 7 ",
"i t t y k k k k x x z z z x c - % * 8 z x z y y y t , 2 1 2 h k C h u w t t t y t y t w 9 % * % 8 k k k y t t t W ` ` ` ",
"u t y y z z z z z x z z z x h - * % 8 z z x h t u t 2 1 1 2 n C C h w i y t t t t t y y y - % - 8 k k C n t t y J ) ) ) ",
"t 9 t 9 y y t y y t 9 9 h 9 t - % $ 8 9 y y 9 y t r g 5 5 5 y y y w q q q q q q q q q r 9 * % & 8 t y t t 9 t 9 I ! [ { ",
"e 8 8 = - % % % = % 8 - - 8 * % % % * * - * - 9 8 8 J [ [ R 0 8 8 8 % * % * * & * * & * * * & = * % * * - 8 8 9 I [ { { ",
"8 8 8 8 * * * * = % % % - % % % = & & & * 8 - 8 8 8 J [ [ ~ 0 8 8 8 * & & & & & & & % % * & & & * & * & - 8 8 8 L [ [ [ ",
"8 8 8 8 * * * * % % = % % % % & % * & & O O * 8 8 8 J [ [ ! 0 8 8 8 * & & & & & & * * $ & * & & & & * & - 8 8 8 F [ ! ! ",
"% $ $ - * * 8 * - - - - - - - - O 8 8 % 0 - O O @ @ U +.o.! = @ O % * * - - - - % - - - * 8 * * - - - - % @ $ $ H  . . .",
"O o o O 8 8 8 8 8 8 8 8 8 8 8 8 9 8 8 8 9 8 O o     6 &.&.' o   . O 8 8 8 8 8 8 8 8 8 8 8 8 8 8 8 8 8 8 $ .     U &.&.&.",
"O o o O 8 8 9 8 8 8 8 8 8 8 8 8 8 8 8 8 8 9 O o     6 &.&.' o   . O 8 8 8 8 8 8 8 8 8 8 8 8 8 8 8 8 8 8 @     X G &.%.%.",
"# o O O 8 8 8 8 8 8 8 8 8 8 - - 8 8 8 8 8 9 O o   o 6 &.&.' O o . O - 8 8 8 8 8 8 8 8 8 8 8 8 8 8 8 8 - = X   o ! %.%.%.",
"G S 5 4 > : < < , > < < : : < : > > > > : 2 2 5 5 5  .+.%.o.5 5 g S J J J g 2 : 2 : < , < < < < 2 J J J G T 5 ! +.%.%.%.",
"[ _ _ R 1 1 1 1 5 1 1 5 1 5 5 1 4 1 1 1 1 1 5 [ [ [ o.&.%.%.} [ _ _ [ _ [ 6 1 1 1 1 1 1 1 1 1 1 5 ` ! [  .&.&.&.%.%.%.%.",
"[ [ [ U 5 1 1 1 1 5 1 1 1 1 1 1 1 1 1 1 3 1 G [ _ [ +.&.%.o.[ [ _ _ _ _ _ 7 1 1 1 1 4 1 1 1 1 1 5 { !  . .&.%.%.%.%.%.%.",
"[ _ ` ! 1 1 1 3 1 1 1 1 1 1 1 1 < 1 1 1 1 1 U } _ [ +.%.%.&.[ ^ _ [ [ ^ ) 5 1 3 1 1 1 1 1 1 1 1 5 { ! ` ` %.%.&.%.%.&.&."
};
